<?xml version="1.0" encoding="UTF-8" standalone="no"?>
<!DOCTYPE svg PUBLIC "-//W3C//DTD SVG 1.1//EN"
 "http://www.w3.org/Graphics/SVG/1.1/DTD/svg11.dtd">
<!-- Generated by graphviz version 2.47.3 (20210619.1520)
 -->
<!-- Title: dependencies Pages: 1 -->
<svg width="478pt" height="174pt"
 viewBox="0.00 0.00 478.00 173.80" xmlns="http://www.w3.org/2000/svg" xmlns:xlink="http://www.w3.org/1999/xlink">
<g id="graph0" class="graph" transform="scale(1 1) rotate(0) translate(4 169.8)">
<title>dependencies</title>
<polygon fill="white" stroke="transparent" points="-4,4 -4,-169.8 474,-169.8 474,4 -4,4"/>
<text text-anchor="middle" x="235" y="-8.2" font-family="sans-serif" font-size="14.00">dependencies</text>
<g id="clust1" class="cluster">
<title>cluster_AcercaModule</title>
<polygon fill="none" stroke="black" stroke-dasharray="1,5" points="8,-32.8 8,-157.8 462,-157.8 462,-32.8 8,-32.8"/>
</g>
<g id="clust2" class="cluster">
<title>cluster_AcercaModule_declarations</title>
<polygon fill="none" stroke="black" points="184,-40.8 184,-92.8 454,-92.8 454,-40.8 184,-40.8"/>
</g>
<g id="clust5" class="cluster">
<title>cluster_AcercaModule_imports</title>
<polygon fill="none" stroke="black" points="16,-40.8 16,-92.8 176,-92.8 176,-40.8 16,-40.8"/>
</g>
<!-- ContactoComponent -->
<g id="node1" class="node">
<title>ContactoComponent</title>
<polygon fill="#ffffb3" stroke="black" points="445.88,-84.8 314.12,-84.8 314.12,-48.8 445.88,-48.8 445.88,-84.8"/>
<text text-anchor="middle" x="380" y="-62.6" font-family="Times,serif" font-size="14.00">ContactoComponent</text>
</g>
<!-- AcercaModule -->
<g id="node3" class="node">
<title>AcercaModule</title>
<polygon fill="#8dd3c7" stroke="black" points="293.68,-149.8 290.68,-153.8 269.68,-153.8 266.68,-149.8 194.32,-149.8 194.32,-113.8 293.68,-113.8 293.68,-149.8"/>
<text text-anchor="middle" x="244" y="-127.6" font-family="Times,serif" font-size="14.00">AcercaModule</text>
</g>
<!-- ContactoComponent&#45;&gt;AcercaModule -->
<g id="edge1" class="edge">
<title>ContactoComponent&#45;&gt;AcercaModule</title>
<path fill="none" stroke="black" d="M380,-84.91C380,-104.14 380,-131.8 380,-131.8 380,-131.8 303.87,-131.8 303.87,-131.8"/>
<polygon fill="black" stroke="black" points="303.87,-128.3 293.87,-131.8 303.87,-135.3 303.87,-128.3"/>
</g>
<!-- InfoComponent -->
<g id="node2" class="node">
<title>InfoComponent</title>
<polygon fill="#ffffb3" stroke="black" points="296.15,-84.8 191.85,-84.8 191.85,-48.8 296.15,-48.8 296.15,-84.8"/>
<text text-anchor="middle" x="244" y="-62.6" font-family="Times,serif" font-size="14.00">InfoComponent</text>
</g>
<!-- InfoComponent&#45;&gt;AcercaModule -->
<g id="edge2" class="edge">
<title>InfoComponent&#45;&gt;AcercaModule</title>
<path fill="none" stroke="black" d="M244,-84.91C244,-84.91 244,-103.79 244,-103.79"/>
<polygon fill="black" stroke="black" points="240.5,-103.79 244,-113.79 247.5,-103.79 240.5,-103.79"/>
</g>
<!-- AcercaRoutingModule -->
<g id="node4" class="node">
<title>AcercaRoutingModule</title>
<polygon fill="#8dd3c7" stroke="black" points="168.29,-84.8 165.29,-88.8 144.29,-88.8 141.29,-84.8 23.71,-84.8 23.71,-48.8 168.29,-48.8 168.29,-84.8"/>
<text text-anchor="middle" x="96" y="-62.6" font-family="Times,serif" font-size="14.00">AcercaRoutingModule</text>
</g>
<!-- AcercaRoutingModule&#45;&gt;AcercaModule -->
<g id="edge3" class="edge">
<title>AcercaRoutingModule&#45;&gt;AcercaModule</title>
<path fill="none" stroke="black" d="M96,-84.91C96,-104.14 96,-131.8 96,-131.8 96,-131.8 184.31,-131.8 184.31,-131.8"/>
<polygon fill="black" stroke="black" points="184.31,-135.3 194.31,-131.8 184.31,-128.3 184.31,-135.3"/>
</g>
</g>
</svg>
