<?xml version="1.0" encoding="UTF-8" standalone="no"?>
<!DOCTYPE svg PUBLIC "-//W3C//DTD SVG 1.1//EN"
 "http://www.w3.org/Graphics/SVG/1.1/DTD/svg11.dtd">
<!-- Generated by graphviz version 2.47.3 (20210619.1520)
 -->
<!-- Title: dependencies Pages: 1 -->
<svg width="312pt" height="174pt"
 viewBox="0.00 0.00 312.00 173.80" xmlns="http://www.w3.org/2000/svg" xmlns:xlink="http://www.w3.org/1999/xlink">
<g id="graph0" class="graph" transform="scale(1 1) rotate(0) translate(4 169.8)">
<title>dependencies</title>
<polygon fill="white" stroke="transparent" points="-4,4 -4,-169.8 308,-169.8 308,4 -4,4"/>
<text text-anchor="middle" x="152" y="-8.2" font-family="sans-serif" font-size="14.00">dependencies</text>
<g id="clust1" class="cluster">
<title>cluster_HomeModule</title>
<polygon fill="none" stroke="black" stroke-dasharray="1,5" points="8,-32.8 8,-157.8 296,-157.8 296,-32.8 8,-32.8"/>
</g>
<g id="clust2" class="cluster">
<title>cluster_HomeModule_declarations</title>
<polygon fill="none" stroke="black" points="156,-40.8 156,-92.8 288,-92.8 288,-40.8 156,-40.8"/>
</g>
<g id="clust4" class="cluster">
<title>cluster_HomeModule_imports</title>
<polygon fill="none" stroke="black" points="16,-40.8 16,-92.8 148,-92.8 148,-40.8 16,-40.8"/>
</g>
<!-- HomeComponent -->
<g id="node1" class="node">
<title>HomeComponent</title>
<polygon fill="#ffffb3" stroke="black" points="279.55,-84.8 164.45,-84.8 164.45,-48.8 279.55,-48.8 279.55,-84.8"/>
<text text-anchor="middle" x="222" y="-62.6" font-family="Times,serif" font-size="14.00">HomeComponent</text>
</g>
<!-- HomeModule -->
<g id="node2" class="node">
<title>HomeModule</title>
<polygon fill="#8dd3c7" stroke="black" points="198.76,-149.8 195.76,-153.8 174.76,-153.8 171.76,-149.8 105.24,-149.8 105.24,-113.8 198.76,-113.8 198.76,-149.8"/>
<text text-anchor="middle" x="152" y="-127.6" font-family="Times,serif" font-size="14.00">HomeModule</text>
</g>
<!-- HomeComponent&#45;&gt;HomeModule -->
<g id="edge1" class="edge">
<title>HomeComponent&#45;&gt;HomeModule</title>
<path fill="none" stroke="black" d="M181.55,-84.91C181.55,-84.91 181.55,-103.79 181.55,-103.79"/>
<polygon fill="black" stroke="black" points="178.05,-103.79 181.55,-113.79 185.05,-103.79 178.05,-103.79"/>
</g>
<!-- SeguridadModule -->
<g id="node3" class="node">
<title>SeguridadModule</title>
<polygon fill="#8dd3c7" stroke="black" points="140.31,-84.8 137.31,-88.8 116.31,-88.8 113.31,-84.8 23.69,-84.8 23.69,-48.8 140.31,-48.8 140.31,-84.8"/>
<text text-anchor="middle" x="82" y="-62.6" font-family="Times,serif" font-size="14.00">SeguridadModule</text>
</g>
<!-- SeguridadModule&#45;&gt;HomeModule -->
<g id="edge2" class="edge">
<title>SeguridadModule&#45;&gt;HomeModule</title>
<path fill="none" stroke="black" d="M122.64,-84.91C122.64,-84.91 122.64,-103.79 122.64,-103.79"/>
<polygon fill="black" stroke="black" points="119.14,-103.79 122.64,-113.79 126.14,-103.79 119.14,-103.79"/>
</g>
</g>
</svg>
