<?xml version="1.0" encoding="UTF-8" standalone="no"?>
<!DOCTYPE svg PUBLIC "-//W3C//DTD SVG 1.1//EN"
 "http://www.w3.org/Graphics/SVG/1.1/DTD/svg11.dtd">
<!-- Generated by graphviz version 2.47.3 (20210619.1520)
 -->
<!-- Title: dependencies Pages: 1 -->
<svg width="1202pt" height="247pt"
 viewBox="0.00 0.00 1202.00 246.80" xmlns="http://www.w3.org/2000/svg" xmlns:xlink="http://www.w3.org/1999/xlink">
<g id="graph0" class="graph" transform="scale(1 1) rotate(0) translate(4 242.8)">
<title>dependencies</title>
<polygon fill="white" stroke="transparent" points="-4,4 -4,-242.8 1198,-242.8 1198,4 -4,4"/>
<text text-anchor="middle" x="597" y="-8.2" font-family="sans-serif" font-size="14.00">dependencies</text>
<g id="clust1" class="cluster">
<title>cluster_AppModule</title>
<polygon fill="none" stroke="black" stroke-dasharray="1,5" points="8,-32.8 8,-230.8 1186,-230.8 1186,-32.8 8,-32.8"/>
</g>
<g id="clust4" class="cluster">
<title>cluster_AppModule_imports</title>
<polygon fill="none" stroke="black" points="146,-40.8 146,-92.8 1178,-92.8 1178,-40.8 146,-40.8"/>
</g>
<g id="clust2" class="cluster">
<title>cluster_AppModule_declarations</title>
<polygon fill="none" stroke="black" points="16,-40.8 16,-92.8 138,-92.8 138,-40.8 16,-40.8"/>
</g>
<g id="clust6" class="cluster">
<title>cluster_AppModule_bootstrap</title>
<polygon fill="none" stroke="black" points="535,-170.8 535,-222.8 659,-222.8 659,-170.8 535,-170.8"/>
</g>
<!-- AppComponent -->
<g id="node1" class="node">
<title>AppComponent</title>
<polygon fill="#ffffb3" stroke="black" points="129.94,-84.8 24.06,-84.8 24.06,-48.8 129.94,-48.8 129.94,-84.8"/>
<text text-anchor="middle" x="77" y="-62.6" font-family="Times,serif" font-size="14.00">AppComponent</text>
</g>
<!-- AppModule -->
<g id="node2" class="node">
<title>AppModule</title>
<polygon fill="#8dd3c7" stroke="black" points="638.66,-149.8 635.66,-153.8 614.66,-153.8 611.66,-149.8 555.34,-149.8 555.34,-113.8 638.66,-113.8 638.66,-149.8"/>
<text text-anchor="middle" x="597" y="-127.6" font-family="Times,serif" font-size="14.00">AppModule</text>
</g>
<!-- AppComponent&#45;&gt;AppModule -->
<g id="edge1" class="edge">
<title>AppComponent&#45;&gt;AppModule</title>
<path fill="none" stroke="black" d="M77,-84.81C77,-107.29 77,-142.8 77,-142.8 77,-142.8 545.33,-142.8 545.33,-142.8"/>
<polygon fill="black" stroke="black" points="545.33,-146.3 555.33,-142.8 545.33,-139.3 545.33,-146.3"/>
</g>
<!-- AppComponent  -->
<g id="node11" class="node">
<title>AppComponent </title>
<polygon fill="#80b1d3" stroke="black" points="651.44,-214.8 542.56,-214.8 542.56,-178.8 651.44,-178.8 651.44,-214.8"/>
<text text-anchor="middle" x="597" y="-192.6" font-family="Times,serif" font-size="14.00">AppComponent </text>
</g>
<!-- AppModule&#45;&gt;AppComponent  -->
<g id="edge10" class="edge">
<title>AppModule&#45;&gt;AppComponent </title>
<path fill="none" stroke="black" stroke-dasharray="1,5" d="M597,-149.91C597,-149.91 597,-168.79 597,-168.79"/>
<polygon fill="black" stroke="black" points="593.5,-168.79 597,-178.79 600.5,-168.79 593.5,-168.79"/>
</g>
<!-- AcercaModule -->
<g id="node3" class="node">
<title>AcercaModule</title>
<polygon fill="#8dd3c7" stroke="black" points="1169.68,-84.8 1166.68,-88.8 1145.68,-88.8 1142.68,-84.8 1070.32,-84.8 1070.32,-48.8 1169.68,-48.8 1169.68,-84.8"/>
<text text-anchor="middle" x="1120" y="-62.6" font-family="Times,serif" font-size="14.00">AcercaModule</text>
</g>
<!-- AcercaModule&#45;&gt;AppModule -->
<g id="edge2" class="edge">
<title>AcercaModule&#45;&gt;AppModule</title>
<path fill="none" stroke="black" d="M1120,-84.81C1120,-107.29 1120,-142.8 1120,-142.8 1120,-142.8 648.92,-142.8 648.92,-142.8"/>
<polygon fill="black" stroke="black" points="648.92,-139.3 638.92,-142.8 648.92,-146.3 648.92,-139.3"/>
</g>
<!-- AppRoutingModule -->
<g id="node4" class="node">
<title>AppRoutingModule</title>
<polygon fill="#8dd3c7" stroke="black" points="1052.27,-84.8 1049.27,-88.8 1028.27,-88.8 1025.27,-84.8 923.73,-84.8 923.73,-48.8 1052.27,-48.8 1052.27,-84.8"/>
<text text-anchor="middle" x="988" y="-62.6" font-family="Times,serif" font-size="14.00">AppRoutingModule</text>
</g>
<!-- AppRoutingModule&#45;&gt;AppModule -->
<g id="edge3" class="edge">
<title>AppRoutingModule&#45;&gt;AppModule</title>
<path fill="none" stroke="black" d="M988,-84.93C988,-105.37 988,-135.8 988,-135.8 988,-135.8 648.84,-135.8 648.84,-135.8"/>
<polygon fill="black" stroke="black" points="648.84,-132.3 638.84,-135.8 648.84,-139.3 648.84,-132.3"/>
</g>
<!-- EsqueletoModule -->
<g id="node5" class="node">
<title>EsqueletoModule</title>
<polygon fill="#8dd3c7" stroke="black" points="905.26,-84.8 902.26,-88.8 881.26,-88.8 878.26,-84.8 790.74,-84.8 790.74,-48.8 905.26,-48.8 905.26,-84.8"/>
<text text-anchor="middle" x="848" y="-62.6" font-family="Times,serif" font-size="14.00">EsqueletoModule</text>
</g>
<!-- EsqueletoModule&#45;&gt;AppModule -->
<g id="edge4" class="edge">
<title>EsqueletoModule&#45;&gt;AppModule</title>
<path fill="none" stroke="black" d="M848,-85.07C848,-103.36 848,-128.8 848,-128.8 848,-128.8 648.73,-128.8 648.73,-128.8"/>
<polygon fill="black" stroke="black" points="648.73,-125.3 638.73,-128.8 648.73,-132.3 648.73,-125.3"/>
</g>
<!-- FichasModule -->
<g id="node6" class="node">
<title>FichasModule</title>
<polygon fill="#8dd3c7" stroke="black" points="773.1,-84.8 770.1,-88.8 749.1,-88.8 746.1,-84.8 676.9,-84.8 676.9,-48.8 773.1,-48.8 773.1,-84.8"/>
<text text-anchor="middle" x="725" y="-62.6" font-family="Times,serif" font-size="14.00">FichasModule</text>
</g>
<!-- FichasModule&#45;&gt;AppModule -->
<g id="edge5" class="edge">
<title>FichasModule&#45;&gt;AppModule</title>
<path fill="none" stroke="black" d="M725,-84.81C725,-100.85 725,-121.8 725,-121.8 725,-121.8 648.91,-121.8 648.91,-121.8"/>
<polygon fill="black" stroke="black" points="648.91,-118.3 638.91,-121.8 648.91,-125.3 648.91,-118.3"/>
</g>
<!-- FotografiasModule -->
<g id="node7" class="node">
<title>FotografiasModule</title>
<polygon fill="#8dd3c7" stroke="black" points="658.81,-84.8 655.81,-88.8 634.81,-88.8 631.81,-84.8 535.19,-84.8 535.19,-48.8 658.81,-48.8 658.81,-84.8"/>
<text text-anchor="middle" x="597" y="-62.6" font-family="Times,serif" font-size="14.00">FotografiasModule</text>
</g>
<!-- FotografiasModule&#45;&gt;AppModule -->
<g id="edge6" class="edge">
<title>FotografiasModule&#45;&gt;AppModule</title>
<path fill="none" stroke="black" d="M597,-84.91C597,-84.91 597,-103.79 597,-103.79"/>
<polygon fill="black" stroke="black" points="593.5,-103.79 597,-113.79 600.5,-103.79 593.5,-103.79"/>
</g>
<!-- HomeModule -->
<g id="node8" class="node">
<title>HomeModule</title>
<polygon fill="#8dd3c7" stroke="black" points="516.76,-84.8 513.76,-88.8 492.76,-88.8 489.76,-84.8 423.24,-84.8 423.24,-48.8 516.76,-48.8 516.76,-84.8"/>
<text text-anchor="middle" x="470" y="-62.6" font-family="Times,serif" font-size="14.00">HomeModule</text>
</g>
<!-- HomeModule&#45;&gt;AppModule -->
<g id="edge7" class="edge">
<title>HomeModule&#45;&gt;AppModule</title>
<path fill="none" stroke="black" d="M470,-84.81C470,-100.85 470,-121.8 470,-121.8 470,-121.8 545.06,-121.8 545.06,-121.8"/>
<polygon fill="black" stroke="black" points="545.06,-125.3 555.06,-121.8 545.06,-118.3 545.06,-125.3"/>
</g>
<!-- InventarioModule -->
<g id="node9" class="node">
<title>InventarioModule</title>
<polygon fill="#8dd3c7" stroke="black" points="405.58,-84.8 402.58,-88.8 381.58,-88.8 378.58,-84.8 288.42,-84.8 288.42,-48.8 405.58,-48.8 405.58,-84.8"/>
<text text-anchor="middle" x="347" y="-62.6" font-family="Times,serif" font-size="14.00">InventarioModule</text>
</g>
<!-- InventarioModule&#45;&gt;AppModule -->
<g id="edge8" class="edge">
<title>InventarioModule&#45;&gt;AppModule</title>
<path fill="none" stroke="black" d="M347,-85.07C347,-103.36 347,-128.8 347,-128.8 347,-128.8 545.16,-128.8 545.16,-128.8"/>
<polygon fill="black" stroke="black" points="545.16,-132.3 555.16,-128.8 545.16,-125.3 545.16,-132.3"/>
</g>
<!-- SeguridadModule -->
<g id="node10" class="node">
<title>SeguridadModule</title>
<polygon fill="#8dd3c7" stroke="black" points="270.31,-84.8 267.31,-88.8 246.31,-88.8 243.31,-84.8 153.69,-84.8 153.69,-48.8 270.31,-48.8 270.31,-84.8"/>
<text text-anchor="middle" x="212" y="-62.6" font-family="Times,serif" font-size="14.00">SeguridadModule</text>
</g>
<!-- SeguridadModule&#45;&gt;AppModule -->
<g id="edge9" class="edge">
<title>SeguridadModule&#45;&gt;AppModule</title>
<path fill="none" stroke="black" d="M212,-84.93C212,-105.37 212,-135.8 212,-135.8 212,-135.8 545.07,-135.8 545.07,-135.8"/>
<polygon fill="black" stroke="black" points="545.07,-139.3 555.07,-135.8 545.07,-132.3 545.07,-139.3"/>
</g>
</g>
</svg>
