<?xml version="1.0" encoding="UTF-8" standalone="no"?>
<!DOCTYPE svg PUBLIC "-//W3C//DTD SVG 1.1//EN"
 "http://www.w3.org/Graphics/SVG/1.1/DTD/svg11.dtd">
<!-- Generated by graphviz version 2.47.3 (20210619.1520)
 -->
<!-- Title: dependencies Pages: 1 -->
<svg width="334pt" height="247pt"
 viewBox="0.00 0.00 334.00 246.80" xmlns="http://www.w3.org/2000/svg" xmlns:xlink="http://www.w3.org/1999/xlink">
<g id="graph0" class="graph" transform="scale(1 1) rotate(0) translate(4 242.8)">
<title>dependencies</title>
<polygon fill="white" stroke="transparent" points="-4,4 -4,-242.8 330,-242.8 330,4 -4,4"/>
<text text-anchor="middle" x="163" y="-8.2" font-family="sans-serif" font-size="14.00">dependencies</text>
<g id="clust1" class="cluster">
<title>cluster_ArchivosModule</title>
<polygon fill="none" stroke="black" stroke-dasharray="1,5" points="8,-32.8 8,-230.8 318,-230.8 318,-32.8 8,-32.8"/>
</g>
<g id="clust2" class="cluster">
<title>cluster_ArchivosModule_declarations</title>
<polygon fill="none" stroke="black" points="16,-40.8 16,-92.8 310,-92.8 310,-40.8 16,-40.8"/>
</g>
<g id="clust6" class="cluster">
<title>cluster_ArchivosModule_exports</title>
<polygon fill="none" stroke="black" points="87,-170.8 87,-222.8 239,-222.8 239,-170.8 87,-170.8"/>
</g>
<!-- ArchivoComponent -->
<g id="node1" class="node">
<title>ArchivoComponent</title>
<polygon fill="#ffffb3" stroke="black" points="301.7,-84.8 174.3,-84.8 174.3,-48.8 301.7,-48.8 301.7,-84.8"/>
<text text-anchor="middle" x="238" y="-62.6" font-family="Times,serif" font-size="14.00">ArchivoComponent</text>
</g>
<!-- ArchivosModule -->
<g id="node3" class="node">
<title>ArchivosModule</title>
<polygon fill="#8dd3c7" stroke="black" points="218.37,-149.8 215.37,-153.8 194.37,-153.8 191.37,-149.8 107.63,-149.8 107.63,-113.8 218.37,-113.8 218.37,-149.8"/>
<text text-anchor="middle" x="163" y="-127.6" font-family="Times,serif" font-size="14.00">ArchivosModule</text>
</g>
<!-- ArchivoComponent&#45;&gt;ArchivosModule -->
<g id="edge1" class="edge">
<title>ArchivoComponent&#45;&gt;ArchivosModule</title>
<path fill="none" stroke="black" d="M196.42,-84.91C196.42,-84.91 196.42,-103.79 196.42,-103.79"/>
<polygon fill="black" stroke="black" points="192.92,-103.79 196.42,-113.79 199.92,-103.79 192.92,-103.79"/>
</g>
<!-- ArchivosComponent -->
<g id="node2" class="node">
<title>ArchivosComponent</title>
<polygon fill="#ffffb3" stroke="black" points="156.15,-84.8 23.85,-84.8 23.85,-48.8 156.15,-48.8 156.15,-84.8"/>
<text text-anchor="middle" x="90" y="-62.6" font-family="Times,serif" font-size="14.00">ArchivosComponent</text>
</g>
<!-- ArchivosComponent&#45;&gt;ArchivosModule -->
<g id="edge2" class="edge">
<title>ArchivosComponent&#45;&gt;ArchivosModule</title>
<path fill="none" stroke="black" d="M131.95,-84.91C131.95,-84.91 131.95,-103.79 131.95,-103.79"/>
<polygon fill="black" stroke="black" points="128.45,-103.79 131.95,-113.79 135.45,-103.79 128.45,-103.79"/>
</g>
<!-- ArchivosComponent  -->
<g id="node4" class="node">
<title>ArchivosComponent </title>
<polygon fill="#fb8072" stroke="black" points="231.15,-214.8 94.85,-214.8 94.85,-178.8 231.15,-178.8 231.15,-214.8"/>
<text text-anchor="middle" x="163" y="-192.6" font-family="Times,serif" font-size="14.00">ArchivosComponent </text>
</g>
<!-- ArchivosModule&#45;&gt;ArchivosComponent  -->
<g id="edge3" class="edge">
<title>ArchivosModule&#45;&gt;ArchivosComponent </title>
<path fill="none" stroke="black" stroke-dasharray="5,2" d="M163,-149.91C163,-149.91 163,-168.79 163,-168.79"/>
<polygon fill="black" stroke="black" points="159.5,-168.79 163,-178.79 166.5,-168.79 159.5,-168.79"/>
</g>
</g>
</svg>
