<?xml version="1.0" encoding="UTF-8" standalone="no"?>
<!DOCTYPE svg PUBLIC "-//W3C//DTD SVG 1.1//EN"
 "http://www.w3.org/Graphics/SVG/1.1/DTD/svg11.dtd">
<!-- Generated by graphviz version 2.47.3 (20210619.1520)
 -->
<!-- Title: dependencies Pages: 1 -->
<svg width="939pt" height="247pt"
 viewBox="0.00 0.00 939.00 246.80" xmlns="http://www.w3.org/2000/svg" xmlns:xlink="http://www.w3.org/1999/xlink">
<g id="graph0" class="graph" transform="scale(1 1) rotate(0) translate(4 242.8)">
<title>dependencies</title>
<polygon fill="white" stroke="transparent" points="-4,4 -4,-242.8 935,-242.8 935,4 -4,4"/>
<text text-anchor="middle" x="465.5" y="-8.2" font-family="sans-serif" font-size="14.00">dependencies</text>
<g id="clust1" class="cluster">
<title>cluster_EsqueletoModule</title>
<polygon fill="none" stroke="black" stroke-dasharray="1,5" points="8,-32.8 8,-230.8 923,-230.8 923,-32.8 8,-32.8"/>
</g>
<g id="clust8" class="cluster">
<title>cluster_EsqueletoModule_imports</title>
<polygon fill="none" stroke="black" points="783,-40.8 783,-92.8 915,-92.8 915,-40.8 783,-40.8"/>
</g>
<g id="clust9" class="cluster">
<title>cluster_EsqueletoModule_exports</title>
<polygon fill="none" stroke="black" points="393,-170.8 393,-222.8 549,-222.8 549,-170.8 393,-170.8"/>
</g>
<g id="clust2" class="cluster">
<title>cluster_EsqueletoModule_declarations</title>
<polygon fill="none" stroke="black" points="16,-40.8 16,-92.8 775,-92.8 775,-40.8 16,-40.8"/>
</g>
<!-- CuerpoComponent -->
<g id="node1" class="node">
<title>CuerpoComponent</title>
<polygon fill="#ffffb3" stroke="black" points="767.05,-84.8 644.95,-84.8 644.95,-48.8 767.05,-48.8 767.05,-84.8"/>
<text text-anchor="middle" x="706" y="-62.6" font-family="Times,serif" font-size="14.00">CuerpoComponent</text>
</g>
<!-- EsqueletoModule -->
<g id="node6" class="node">
<title>EsqueletoModule</title>
<polygon fill="#8dd3c7" stroke="black" points="528.26,-149.8 525.26,-153.8 504.26,-153.8 501.26,-149.8 413.74,-149.8 413.74,-113.8 528.26,-113.8 528.26,-149.8"/>
<text text-anchor="middle" x="471" y="-127.6" font-family="Times,serif" font-size="14.00">EsqueletoModule</text>
</g>
<!-- CuerpoComponent&#45;&gt;EsqueletoModule -->
<g id="edge1" class="edge">
<title>CuerpoComponent&#45;&gt;EsqueletoModule</title>
<path fill="none" stroke="black" d="M706,-84.82C706,-102.17 706,-125.8 706,-125.8 706,-125.8 538.49,-125.8 538.49,-125.8"/>
<polygon fill="black" stroke="black" points="538.49,-122.3 528.49,-125.8 538.49,-129.3 538.49,-122.3"/>
</g>
<!-- EncabezadoComponent -->
<g id="node2" class="node">
<title>EncabezadoComponent</title>
<polygon fill="#ffffb3" stroke="black" points="626.46,-84.8 477.54,-84.8 477.54,-48.8 626.46,-48.8 626.46,-84.8"/>
<text text-anchor="middle" x="552" y="-62.6" font-family="Times,serif" font-size="14.00">EncabezadoComponent</text>
</g>
<!-- EncabezadoComponent&#45;&gt;EsqueletoModule -->
<g id="edge2" class="edge">
<title>EncabezadoComponent&#45;&gt;EsqueletoModule</title>
<path fill="none" stroke="black" d="M502.95,-84.91C502.95,-84.91 502.95,-103.79 502.95,-103.79"/>
<polygon fill="black" stroke="black" points="499.45,-103.79 502.95,-113.79 506.45,-103.79 499.45,-103.79"/>
</g>
<!-- EsqueletoComponent -->
<g id="node3" class="node">
<title>EsqueletoComponent</title>
<polygon fill="#ffffb3" stroke="black" points="459.04,-84.8 322.96,-84.8 322.96,-48.8 459.04,-48.8 459.04,-84.8"/>
<text text-anchor="middle" x="391" y="-62.6" font-family="Times,serif" font-size="14.00">EsqueletoComponent</text>
</g>
<!-- EsqueletoComponent&#45;&gt;EsqueletoModule -->
<g id="edge3" class="edge">
<title>EsqueletoComponent&#45;&gt;EsqueletoModule</title>
<path fill="none" stroke="black" d="M436.45,-84.91C436.45,-84.91 436.45,-103.79 436.45,-103.79"/>
<polygon fill="black" stroke="black" points="432.95,-103.79 436.45,-113.79 439.95,-103.79 432.95,-103.79"/>
</g>
<!-- NoEncontradoComponent -->
<g id="node4" class="node">
<title>NoEncontradoComponent</title>
<polygon fill="#ffffb3" stroke="black" points="304.47,-84.8 141.53,-84.8 141.53,-48.8 304.47,-48.8 304.47,-84.8"/>
<text text-anchor="middle" x="223" y="-62.6" font-family="Times,serif" font-size="14.00">NoEncontradoComponent</text>
</g>
<!-- NoEncontradoComponent&#45;&gt;EsqueletoModule -->
<g id="edge4" class="edge">
<title>NoEncontradoComponent&#45;&gt;EsqueletoModule</title>
<path fill="none" stroke="black" d="M223,-84.82C223,-102.17 223,-125.8 223,-125.8 223,-125.8 403.48,-125.8 403.48,-125.8"/>
<polygon fill="black" stroke="black" points="403.48,-129.3 413.48,-125.8 403.48,-122.3 403.48,-129.3"/>
</g>
<!-- PieComponent -->
<g id="node5" class="node">
<title>PieComponent</title>
<polygon fill="#ffffb3" stroke="black" points="123.72,-84.8 24.28,-84.8 24.28,-48.8 123.72,-48.8 123.72,-84.8"/>
<text text-anchor="middle" x="74" y="-62.6" font-family="Times,serif" font-size="14.00">PieComponent</text>
</g>
<!-- PieComponent&#45;&gt;EsqueletoModule -->
<g id="edge5" class="edge">
<title>PieComponent&#45;&gt;EsqueletoModule</title>
<path fill="none" stroke="black" d="M74,-85.08C74,-106.12 74,-137.8 74,-137.8 74,-137.8 403.7,-137.8 403.7,-137.8"/>
<polygon fill="black" stroke="black" points="403.7,-141.3 413.7,-137.8 403.7,-134.3 403.7,-141.3"/>
</g>
<!-- EsqueletoComponent  -->
<g id="node8" class="node">
<title>EsqueletoComponent </title>
<polygon fill="#fb8072" stroke="black" points="541.04,-214.8 400.96,-214.8 400.96,-178.8 541.04,-178.8 541.04,-214.8"/>
<text text-anchor="middle" x="471" y="-192.6" font-family="Times,serif" font-size="14.00">EsqueletoComponent </text>
</g>
<!-- EsqueletoModule&#45;&gt;EsqueletoComponent  -->
<g id="edge7" class="edge">
<title>EsqueletoModule&#45;&gt;EsqueletoComponent </title>
<path fill="none" stroke="black" stroke-dasharray="5,2" d="M471,-149.91C471,-149.91 471,-168.79 471,-168.79"/>
<polygon fill="black" stroke="black" points="467.5,-168.79 471,-178.79 474.5,-168.79 467.5,-168.79"/>
</g>
<!-- SeguridadModule -->
<g id="node7" class="node">
<title>SeguridadModule</title>
<polygon fill="#8dd3c7" stroke="black" points="907.31,-84.8 904.31,-88.8 883.31,-88.8 880.31,-84.8 790.69,-84.8 790.69,-48.8 907.31,-48.8 907.31,-84.8"/>
<text text-anchor="middle" x="849" y="-62.6" font-family="Times,serif" font-size="14.00">SeguridadModule</text>
</g>
<!-- SeguridadModule&#45;&gt;EsqueletoModule -->
<g id="edge6" class="edge">
<title>SeguridadModule&#45;&gt;EsqueletoModule</title>
<path fill="none" stroke="black" d="M849,-85.08C849,-106.12 849,-137.8 849,-137.8 849,-137.8 538.41,-137.8 538.41,-137.8"/>
<polygon fill="black" stroke="black" points="538.41,-134.3 528.41,-137.8 538.41,-141.3 538.41,-134.3"/>
</g>
</g>
</svg>
