<?xml version="1.0" encoding="UTF-8" standalone="no"?>
<!DOCTYPE svg PUBLIC "-//W3C//DTD SVG 1.1//EN"
 "http://www.w3.org/Graphics/SVG/1.1/DTD/svg11.dtd">
<!-- Generated by graphviz version 2.47.3 (20210619.1520)
 -->
<!-- Title: dependencies Pages: 1 -->
<svg width="551pt" height="247pt"
 viewBox="0.00 0.00 551.00 246.80" xmlns="http://www.w3.org/2000/svg" xmlns:xlink="http://www.w3.org/1999/xlink">
<g id="graph0" class="graph" transform="scale(1 1) rotate(0) translate(4 242.8)">
<title>dependencies</title>
<polygon fill="white" stroke="transparent" points="-4,4 -4,-242.8 547,-242.8 547,4 -4,4"/>
<text text-anchor="middle" x="271.5" y="-8.2" font-family="sans-serif" font-size="14.00">dependencies</text>
<g id="clust1" class="cluster">
<title>cluster_FotografiasModule</title>
<polygon fill="none" stroke="black" stroke-dasharray="1,5" points="8,-32.8 8,-230.8 535,-230.8 535,-32.8 8,-32.8"/>
</g>
<g id="clust5" class="cluster">
<title>cluster_FotografiasModule_imports</title>
<polygon fill="none" stroke="black" points="343,-40.8 343,-92.8 527,-92.8 527,-40.8 343,-40.8"/>
</g>
<g id="clust6" class="cluster">
<title>cluster_FotografiasModule_exports</title>
<polygon fill="none" stroke="black" points="175,-170.8 175,-222.8 339,-222.8 339,-170.8 175,-170.8"/>
</g>
<g id="clust2" class="cluster">
<title>cluster_FotografiasModule_declarations</title>
<polygon fill="none" stroke="black" points="16,-40.8 16,-92.8 335,-92.8 335,-40.8 16,-40.8"/>
</g>
<!-- FotografiaComponent -->
<g id="node1" class="node">
<title>FotografiaComponent</title>
<polygon fill="#ffffb3" stroke="black" points="326.65,-84.8 187.35,-84.8 187.35,-48.8 326.65,-48.8 326.65,-84.8"/>
<text text-anchor="middle" x="257" y="-62.6" font-family="Times,serif" font-size="14.00">FotografiaComponent</text>
</g>
<!-- FotografiasModule -->
<g id="node3" class="node">
<title>FotografiasModule</title>
<polygon fill="#8dd3c7" stroke="black" points="318.81,-149.8 315.81,-153.8 294.81,-153.8 291.81,-149.8 195.19,-149.8 195.19,-113.8 318.81,-113.8 318.81,-149.8"/>
<text text-anchor="middle" x="257" y="-127.6" font-family="Times,serif" font-size="14.00">FotografiasModule</text>
</g>
<!-- FotografiaComponent&#45;&gt;FotografiasModule -->
<g id="edge1" class="edge">
<title>FotografiaComponent&#45;&gt;FotografiasModule</title>
<path fill="none" stroke="black" d="M257,-84.91C257,-84.91 257,-103.79 257,-103.79"/>
<polygon fill="black" stroke="black" points="253.5,-103.79 257,-113.79 260.5,-103.79 253.5,-103.79"/>
</g>
<!-- FotografiasComponent -->
<g id="node2" class="node">
<title>FotografiasComponent</title>
<polygon fill="#ffffb3" stroke="black" points="169.59,-84.8 24.41,-84.8 24.41,-48.8 169.59,-48.8 169.59,-84.8"/>
<text text-anchor="middle" x="97" y="-62.6" font-family="Times,serif" font-size="14.00">FotografiasComponent</text>
</g>
<!-- FotografiasComponent&#45;&gt;FotografiasModule -->
<g id="edge2" class="edge">
<title>FotografiasComponent&#45;&gt;FotografiasModule</title>
<path fill="none" stroke="black" d="M97,-84.91C97,-104.14 97,-131.8 97,-131.8 97,-131.8 185.14,-131.8 185.14,-131.8"/>
<polygon fill="black" stroke="black" points="185.14,-135.3 195.14,-131.8 185.14,-128.3 185.14,-135.3"/>
</g>
<!-- FotografiasComponent  -->
<g id="node5" class="node">
<title>FotografiasComponent </title>
<polygon fill="#fb8072" stroke="black" points="331.09,-214.8 182.91,-214.8 182.91,-178.8 331.09,-178.8 331.09,-214.8"/>
<text text-anchor="middle" x="257" y="-192.6" font-family="Times,serif" font-size="14.00">FotografiasComponent </text>
</g>
<!-- FotografiasModule&#45;&gt;FotografiasComponent  -->
<g id="edge4" class="edge">
<title>FotografiasModule&#45;&gt;FotografiasComponent </title>
<path fill="none" stroke="black" stroke-dasharray="5,2" d="M257,-149.91C257,-149.91 257,-168.79 257,-168.79"/>
<polygon fill="black" stroke="black" points="253.5,-168.79 257,-178.79 260.5,-168.79 253.5,-168.79"/>
</g>
<!-- FotografiasRoutingModule -->
<g id="node4" class="node">
<title>FotografiasRoutingModule</title>
<polygon fill="#8dd3c7" stroke="black" points="519.43,-84.8 516.43,-88.8 495.43,-88.8 492.43,-84.8 350.57,-84.8 350.57,-48.8 519.43,-48.8 519.43,-84.8"/>
<text text-anchor="middle" x="435" y="-62.6" font-family="Times,serif" font-size="14.00">FotografiasRoutingModule</text>
</g>
<!-- FotografiasRoutingModule&#45;&gt;FotografiasModule -->
<g id="edge3" class="edge">
<title>FotografiasRoutingModule&#45;&gt;FotografiasModule</title>
<path fill="none" stroke="black" d="M435,-84.91C435,-104.14 435,-131.8 435,-131.8 435,-131.8 328.76,-131.8 328.76,-131.8"/>
<polygon fill="black" stroke="black" points="328.76,-128.3 318.76,-131.8 328.76,-135.3 328.76,-128.3"/>
</g>
</g>
</svg>
