<?xml version="1.0" encoding="UTF-8" standalone="no"?>
<!DOCTYPE svg PUBLIC "-//W3C//DTD SVG 1.1//EN"
 "http://www.w3.org/Graphics/SVG/1.1/DTD/svg11.dtd">
<!-- Generated by graphviz version 2.47.3 (20210619.1520)
 -->
<!-- Title: dependencies Pages: 1 -->
<svg width="1998pt" height="174pt"
 viewBox="0.00 0.00 1998.00 173.80" xmlns="http://www.w3.org/2000/svg" xmlns:xlink="http://www.w3.org/1999/xlink">
<g id="graph0" class="graph" transform="scale(1 1) rotate(0) translate(4 169.8)">
<title>dependencies</title>
<polygon fill="white" stroke="transparent" points="-4,4 -4,-169.8 1994,-169.8 1994,4 -4,4"/>
<text text-anchor="middle" x="995" y="-8.2" font-family="sans-serif" font-size="14.00">dependencies</text>
<g id="clust1" class="cluster">
<title>cluster_FichasModule</title>
<polygon fill="none" stroke="black" stroke-dasharray="1,5" points="8,-32.8 8,-157.8 1982,-157.8 1982,-32.8 8,-32.8"/>
</g>
<g id="clust10" class="cluster">
<title>cluster_FichasModule_imports</title>
<polygon fill="none" stroke="black" points="1208,-40.8 1208,-92.8 1974,-92.8 1974,-40.8 1208,-40.8"/>
</g>
<g id="clust2" class="cluster">
<title>cluster_FichasModule_declarations</title>
<polygon fill="none" stroke="black" points="16,-40.8 16,-92.8 1200,-92.8 1200,-40.8 16,-40.8"/>
</g>
<!-- BuscadorComponent -->
<g id="node1" class="node">
<title>BuscadorComponent</title>
<polygon fill="#ffffb3" stroke="black" points="1192.2,-84.8 1057.8,-84.8 1057.8,-48.8 1192.2,-48.8 1192.2,-84.8"/>
<text text-anchor="middle" x="1125" y="-62.6" font-family="Times,serif" font-size="14.00">BuscadorComponent</text>
</g>
<!-- FichasModule -->
<g id="node8" class="node">
<title>FichasModule</title>
<polygon fill="#8dd3c7" stroke="black" points="1095.1,-149.8 1092.1,-153.8 1071.1,-153.8 1068.1,-149.8 998.9,-149.8 998.9,-113.8 1095.1,-113.8 1095.1,-149.8"/>
<text text-anchor="middle" x="1047" y="-127.6" font-family="Times,serif" font-size="14.00">FichasModule</text>
</g>
<!-- BuscadorComponent&#45;&gt;FichasModule -->
<g id="edge1" class="edge">
<title>BuscadorComponent&#45;&gt;FichasModule</title>
<path fill="none" stroke="black" d="M1076.47,-84.91C1076.47,-84.91 1076.47,-103.79 1076.47,-103.79"/>
<polygon fill="black" stroke="black" points="1072.97,-103.79 1076.47,-113.79 1079.97,-103.79 1072.97,-103.79"/>
</g>
<!-- FichaCardComponent -->
<g id="node2" class="node">
<title>FichaCardComponent</title>
<polygon fill="#ffffb3" stroke="black" points="1039.65,-84.8 900.35,-84.8 900.35,-48.8 1039.65,-48.8 1039.65,-84.8"/>
<text text-anchor="middle" x="970" y="-62.6" font-family="Times,serif" font-size="14.00">FichaCardComponent</text>
</g>
<!-- FichaCardComponent&#45;&gt;FichasModule -->
<g id="edge2" class="edge">
<title>FichaCardComponent&#45;&gt;FichasModule</title>
<path fill="none" stroke="black" d="M1019.39,-84.91C1019.39,-84.91 1019.39,-103.79 1019.39,-103.79"/>
<polygon fill="black" stroke="black" points="1015.89,-103.79 1019.39,-113.79 1022.89,-103.79 1015.89,-103.79"/>
</g>
<!-- FichaCompletaComponent -->
<g id="node3" class="node">
<title>FichaCompletaComponent</title>
<polygon fill="#ffffb3" stroke="black" points="882.37,-84.8 715.63,-84.8 715.63,-48.8 882.37,-48.8 882.37,-84.8"/>
<text text-anchor="middle" x="799" y="-62.6" font-family="Times,serif" font-size="14.00">FichaCompletaComponent</text>
</g>
<!-- FichaCompletaComponent&#45;&gt;FichasModule -->
<g id="edge3" class="edge">
<title>FichaCompletaComponent&#45;&gt;FichasModule</title>
<path fill="none" stroke="black" d="M799,-85.04C799,-100.37 799,-119.8 799,-119.8 799,-119.8 988.89,-119.8 988.89,-119.8"/>
<polygon fill="black" stroke="black" points="988.89,-123.3 998.89,-119.8 988.89,-116.3 988.89,-123.3"/>
</g>
<!-- FormularioFichaComponent -->
<g id="node4" class="node">
<title>FormularioFichaComponent</title>
<polygon fill="#ffffb3" stroke="black" points="697.93,-84.8 522.07,-84.8 522.07,-48.8 697.93,-48.8 697.93,-84.8"/>
<text text-anchor="middle" x="610" y="-62.6" font-family="Times,serif" font-size="14.00">FormularioFichaComponent</text>
</g>
<!-- FormularioFichaComponent&#45;&gt;FichasModule -->
<g id="edge4" class="edge">
<title>FormularioFichaComponent&#45;&gt;FichasModule</title>
<path fill="none" stroke="black" d="M610,-84.82C610,-102.17 610,-125.8 610,-125.8 610,-125.8 988.56,-125.8 988.56,-125.8"/>
<polygon fill="black" stroke="black" points="988.56,-129.3 998.56,-125.8 988.56,-122.3 988.56,-129.3"/>
</g>
<!-- ListadofichasComponent -->
<g id="node5" class="node">
<title>ListadofichasComponent</title>
<polygon fill="#ffffb3" stroke="black" points="504.25,-84.8 347.75,-84.8 347.75,-48.8 504.25,-48.8 504.25,-84.8"/>
<text text-anchor="middle" x="426" y="-62.6" font-family="Times,serif" font-size="14.00">ListadofichasComponent</text>
</g>
<!-- ListadofichasComponent&#45;&gt;FichasModule -->
<g id="edge5" class="edge">
<title>ListadofichasComponent&#45;&gt;FichasModule</title>
<path fill="none" stroke="black" d="M426,-84.91C426,-104.14 426,-131.8 426,-131.8 426,-131.8 988.79,-131.8 988.79,-131.8"/>
<polygon fill="black" stroke="black" points="988.79,-135.3 998.79,-131.8 988.79,-128.3 988.79,-135.3"/>
</g>
<!-- ValidaFichaComponent -->
<g id="node6" class="node">
<title>ValidaFichaComponent</title>
<polygon fill="#ffffb3" stroke="black" points="329.75,-84.8 180.25,-84.8 180.25,-48.8 329.75,-48.8 329.75,-84.8"/>
<text text-anchor="middle" x="255" y="-62.6" font-family="Times,serif" font-size="14.00">ValidaFichaComponent</text>
</g>
<!-- ValidaFichaComponent&#45;&gt;FichasModule -->
<g id="edge6" class="edge">
<title>ValidaFichaComponent&#45;&gt;FichasModule</title>
<path fill="none" stroke="black" d="M255,-85.08C255,-106.12 255,-137.8 255,-137.8 255,-137.8 988.95,-137.8 988.95,-137.8"/>
<polygon fill="black" stroke="black" points="988.95,-141.3 998.95,-137.8 988.95,-134.3 988.95,-141.3"/>
</g>
<!-- ValidadorComponent -->
<g id="node7" class="node">
<title>ValidadorComponent</title>
<polygon fill="#ffffb3" stroke="black" points="161.81,-84.8 24.19,-84.8 24.19,-48.8 161.81,-48.8 161.81,-84.8"/>
<text text-anchor="middle" x="93" y="-62.6" font-family="Times,serif" font-size="14.00">ValidadorComponent</text>
</g>
<!-- ValidadorComponent&#45;&gt;FichasModule -->
<g id="edge7" class="edge">
<title>ValidadorComponent&#45;&gt;FichasModule</title>
<path fill="none" stroke="black" d="M93,-84.89C93,-107.93 93,-144.8 93,-144.8 93,-144.8 988.71,-144.8 988.71,-144.8"/>
<polygon fill="black" stroke="black" points="988.71,-148.3 998.71,-144.8 988.71,-141.3 988.71,-148.3"/>
</g>
<!-- ArchivosModule -->
<g id="node9" class="node">
<title>ArchivosModule</title>
<polygon fill="#8dd3c7" stroke="black" points="1966.37,-84.8 1963.37,-88.8 1942.37,-88.8 1939.37,-84.8 1855.63,-84.8 1855.63,-48.8 1966.37,-48.8 1966.37,-84.8"/>
<text text-anchor="middle" x="1911" y="-62.6" font-family="Times,serif" font-size="14.00">ArchivosModule</text>
</g>
<!-- ArchivosModule&#45;&gt;FichasModule -->
<g id="edge8" class="edge">
<title>ArchivosModule&#45;&gt;FichasModule</title>
<path fill="none" stroke="black" d="M1911,-84.89C1911,-107.93 1911,-144.8 1911,-144.8 1911,-144.8 1105.3,-144.8 1105.3,-144.8"/>
<polygon fill="black" stroke="black" points="1105.3,-141.3 1095.3,-144.8 1105.3,-148.3 1105.3,-141.3"/>
</g>
<!-- FichasRoutingModule -->
<g id="node10" class="node">
<title>FichasRoutingModule</title>
<polygon fill="#8dd3c7" stroke="black" points="1837.71,-84.8 1834.71,-88.8 1813.71,-88.8 1810.71,-84.8 1696.29,-84.8 1696.29,-48.8 1837.71,-48.8 1837.71,-84.8"/>
<text text-anchor="middle" x="1767" y="-62.6" font-family="Times,serif" font-size="14.00">FichasRoutingModule</text>
</g>
<!-- FichasRoutingModule&#45;&gt;FichasModule -->
<g id="edge9" class="edge">
<title>FichasRoutingModule&#45;&gt;FichasModule</title>
<path fill="none" stroke="black" d="M1767,-85.08C1767,-106.12 1767,-137.8 1767,-137.8 1767,-137.8 1105.08,-137.8 1105.08,-137.8"/>
<polygon fill="black" stroke="black" points="1105.08,-134.3 1095.08,-137.8 1105.08,-141.3 1105.08,-134.3"/>
</g>
<!-- FichasvipModule -->
<g id="node11" class="node">
<title>FichasvipModule</title>
<polygon fill="#8dd3c7" stroke="black" points="1677.99,-84.8 1674.99,-88.8 1653.99,-88.8 1650.99,-84.8 1564.01,-84.8 1564.01,-48.8 1677.99,-48.8 1677.99,-84.8"/>
<text text-anchor="middle" x="1621" y="-62.6" font-family="Times,serif" font-size="14.00">FichasvipModule</text>
</g>
<!-- FichasvipModule&#45;&gt;FichasModule -->
<g id="edge10" class="edge">
<title>FichasvipModule&#45;&gt;FichasModule</title>
<path fill="none" stroke="black" d="M1621,-84.91C1621,-104.14 1621,-131.8 1621,-131.8 1621,-131.8 1105.44,-131.8 1105.44,-131.8"/>
<polygon fill="black" stroke="black" points="1105.44,-128.3 1095.44,-131.8 1105.44,-135.3 1105.44,-128.3"/>
</g>
<!-- FormulariosDinamicosModule -->
<g id="node12" class="node">
<title>FormulariosDinamicosModule</title>
<polygon fill="#8dd3c7" stroke="black" points="1546.14,-84.8 1543.14,-88.8 1522.14,-88.8 1519.14,-84.8 1357.86,-84.8 1357.86,-48.8 1546.14,-48.8 1546.14,-84.8"/>
<text text-anchor="middle" x="1452" y="-62.6" font-family="Times,serif" font-size="14.00">FormulariosDinamicosModule</text>
</g>
<!-- FormulariosDinamicosModule&#45;&gt;FichasModule -->
<g id="edge11" class="edge">
<title>FormulariosDinamicosModule&#45;&gt;FichasModule</title>
<path fill="none" stroke="black" d="M1452,-84.82C1452,-102.17 1452,-125.8 1452,-125.8 1452,-125.8 1105.05,-125.8 1105.05,-125.8"/>
<polygon fill="black" stroke="black" points="1105.05,-122.3 1095.05,-125.8 1105.05,-129.3 1105.05,-122.3"/>
</g>
<!-- FotografiasModule -->
<g id="node13" class="node">
<title>FotografiasModule</title>
<polygon fill="#8dd3c7" stroke="black" points="1339.81,-84.8 1336.81,-88.8 1315.81,-88.8 1312.81,-84.8 1216.19,-84.8 1216.19,-48.8 1339.81,-48.8 1339.81,-84.8"/>
<text text-anchor="middle" x="1278" y="-62.6" font-family="Times,serif" font-size="14.00">FotografiasModule</text>
</g>
<!-- FotografiasModule&#45;&gt;FichasModule -->
<g id="edge12" class="edge">
<title>FotografiasModule&#45;&gt;FichasModule</title>
<path fill="none" stroke="black" d="M1278,-85.04C1278,-100.37 1278,-119.8 1278,-119.8 1278,-119.8 1105.14,-119.8 1105.14,-119.8"/>
<polygon fill="black" stroke="black" points="1105.14,-116.3 1095.14,-119.8 1105.14,-123.3 1105.14,-116.3"/>
</g>
</g>
</svg>
